<svg width="473" height="299" viewBox="0 0 473 299" fill="none" xmlns="http://www.w3.org/2000/svg">
<g filter="url(#filter0_d_42_1215)">
<path d="M68.0033 32.4048L65.2686 33.0473C63.881 33.4253 62.6369 34.2058 61.6938 35.2901C59.87 38.9351 57.7603 42.4302 55.3843 45.7428L52.012 50.3118C50.0261 53.0127 48.0242 55.7136 46.0064 58.4146C42.235 63.4952 38.5351 68.6293 34.7816 73.7278C31.2902 78.4554 27.7968 83.185 24.3015 87.9166C20.4486 93.0725 16.5283 98.1928 12.5404 103.277C12.1905 103.717 12 104.262 12 104.824C12 105.386 12.1905 105.931 12.5404 106.371L14.0537 107.709C15.6606 108.642 17.4364 109.249 19.2789 109.494C21.5111 109.821 23.7792 109.821 26.0114 109.494C28.5555 109.09 30.9684 108.304 32.7499 106.401C33.8863 105.084 34.9333 103.693 35.8838 102.236L38.4993 98.4883C40.5687 95.5295 42.6441 92.5807 44.7254 89.6418C48.5326 84.2876 52.3874 78.9333 56.2363 73.579C59.5549 68.9208 62.8437 64.2983 66.2159 59.7174L71.4827 52.507C72.4281 51.2061 73.3794 49.9053 74.3366 48.6044C76.687 45.2914 78.7823 41.805 80.6044 38.1755C80.9311 37.7642 81.1089 37.2547 81.1089 36.7298C81.1089 36.2049 80.9311 35.6954 80.6044 35.2842L79.1924 34.0348C77.6891 33.1703 76.0281 32.6141 74.3068 32.3988C72.2169 32.089 70.0926 32.091 68.0033 32.4048Z" fill="white"/>
<path d="M53.6541 52.8706C52.3171 53.4189 50.2675 54.4677 50.2204 56.4898C50.0084 65.3461 49.7453 74.1978 49.4312 83.0449C49.3193 86.3352 49.2015 89.6254 48.9895 92.9088C48.748 96.6789 48.4005 100.449 48.0648 104.192C48.0294 104.623 48.0236 105.062 48 105.494C48.0143 106.639 48.2777 107.762 48.7657 108.757C49.5999 109.881 50.7031 110.69 51.9343 111.081C55.3374 112.306 58.9794 112.306 62.3825 111.081C63.9315 110.443 65.7926 109.429 66.0047 107.263C66.3698 103.54 66.1048 99.7841 66.146 96.0551C66.1872 92.0383 66.2461 88.0214 66.305 84.0114C66.4287 76.4027 66.682 68.794 66.894 61.1922L67 56.4898C66.9464 55.9247 66.7702 55.3846 66.4879 54.9206C66.2056 54.4565 65.8265 54.0836 65.3862 53.8371C63.5074 52.3633 60.8041 52 58.619 52H58.4659C56.8386 51.9972 55.221 52.291 53.6717 52.8706H53.6541Z" fill="white"/>
<path d="M117.925 40.0977C116.591 40.3413 115.271 40.653 113.969 41.0317C113.278 41.2756 112.235 41.8229 111.401 42.2215C111.05 42.3822 110.68 42.5368 110.341 42.7153L108.101 43.9051C106.736 44.6428 105.378 45.3924 104.013 46.1242C101.267 47.5936 98.4903 49.0036 95.7794 50.5325C89.9823 53.8105 84.2746 57.2373 78.543 60.6461L75.7487 62.2822C75.1739 62.558 74.6794 62.9762 74.3123 63.4969C73.9452 64.0176 73.7177 64.6234 73.6515 65.2568C73.6515 67.4936 76.4279 68.7013 78.1081 69.2903C80.1875 69.9539 82.3598 70.2812 84.5427 70.26C87.5574 70.26 90.6973 69.7543 93.3307 68.2076C99.6938 64.4893 105.991 60.664 112.426 57.0766C115.155 55.5536 117.931 54.1377 120.69 52.6742C123.473 51.2927 126.173 49.7492 128.775 48.0517C129.602 47.5405 130.295 46.8387 130.795 46.0052L131.313 44.5298C131.253 43.9391 131.043 43.3735 130.703 42.8863C130.363 42.3992 129.905 42.0065 129.371 41.7456C127.834 40.8631 126.137 40.2948 124.378 40.0739C122.249 39.7566 120.084 39.7566 117.955 40.0739L117.925 40.0977Z" fill="white"/>
<path d="M103.888 31.2181C102.78 31.6107 101.302 32.283 101.195 33.6572C100.909 37.2981 100.641 40.939 100.45 44.5859C100.379 45.978 100.248 47.376 100.26 48.7503C100.26 50.892 100.276 53.0337 100.307 55.1754C100.361 62.6773 101.118 70.203 103.245 77.4253C103.579 78.6029 104.009 79.751 104.532 80.858C104.988 81.729 105.549 82.542 106.2 83.2793C107.79 85.0875 109.668 86.6212 111.759 87.8186C113.883 89.0816 116.173 90.0427 118.563 90.6742C120.102 91.1098 121.677 91.4084 123.27 91.5665C124.461 91.6617 125.653 91.7629 126.844 91.7807C128.227 91.8105 129.668 91.6498 131.015 91.5427C135.936 91.1323 140.631 89.5081 145.112 87.5152C147.066 86.6466 149.026 85.7304 150.938 84.7785C152.398 84.0408 153.822 83.2793 155.204 82.3989C156.059 81.8692 156.87 81.2724 157.629 80.6141C158.754 79.7059 159.774 78.6741 160.668 77.5384C160.966 77.1684 161.129 76.7076 161.129 76.2325C161.129 75.7575 160.966 75.2967 160.668 74.9267L159.393 73.7904C158.032 73.009 156.529 72.5054 154.972 72.309C153.088 72.0294 151.172 72.0294 149.288 72.309C147.358 72.6125 144.837 73.2312 143.592 74.9267C142.978 75.8097 142.307 76.6523 141.584 77.4491C138.739 79.6217 135.652 81.4602 132.385 82.9283C131.027 83.5096 129.634 84.0063 128.215 84.4156C127.774 84.4989 127.327 84.5644 126.88 84.6238H126.421L126.171 84.5822C125.444 84.3621 124.735 84.1122 124.032 83.8326C122.661 83.132 121.362 82.2991 120.154 81.3458C119.359 80.5714 118.648 79.716 118.032 78.7937C117.411 77.7794 116.913 76.695 116.549 75.5632C115.57 72.4998 114.841 69.3623 114.368 66.1814C114.1 64.4859 113.939 62.7666 113.802 61.0532C113.695 59.6968 113.576 58.3166 113.552 56.9542C113.516 54.1779 113.479 51.4016 113.439 48.6254C113.439 47.846 113.498 47.0607 113.534 46.2814C113.618 44.6275 113.695 42.9736 113.778 41.3198C113.904 38.7616 114.148 36.1975 114.374 33.6394C114.329 33.2596 114.189 32.8972 113.968 32.5853C113.746 32.2735 113.449 32.0223 113.105 31.8546C111.634 30.8611 109.53 30.6172 107.797 30.6172H107.683C106.403 30.6209 105.131 30.8216 103.912 31.2121L103.888 31.2181Z" fill="white"/>
<path d="M121.512 12.2263C120.024 12.4142 118.588 12.8955 117.288 13.6422C116.203 14.374 114.905 15.8791 116.066 17.2117C117.58 18.931 119.111 20.6444 120.571 22.4113C121.244 23.2264 121.923 24.0473 122.578 24.8802C123.091 25.6423 123.659 26.366 124.276 27.0457C125.128 28.0268 126.252 28.7329 127.506 29.0744C130.137 29.9272 132.935 30.1313 135.662 29.6693C137.223 29.4772 138.731 28.9756 140.095 28.1939L141.376 27.0576C141.671 26.6862 141.832 26.226 141.832 25.7518C141.832 25.2776 141.671 24.8173 141.376 24.4459C141.001 24.0711 140.607 23.7142 140.184 23.3691C138.993 22.2328 137.926 20.9895 136.842 19.7996L132.385 14.7488C131.57 13.8128 130.497 13.1381 129.299 12.8093C127.712 12.264 126.044 11.9905 124.366 12.0003C123.41 11.9995 122.456 12.0751 121.512 12.2263Z" fill="#FFD914"/>
<path d="M108.369 104.966C103.882 105.626 99.6699 107.75 95.6959 109.826C92.6455 111.421 89.6486 113.092 86.6696 114.818C84.197 116.246 81.7662 117.739 79.3115 119.202C76.3325 120.987 73.288 122.772 70.2196 124.461C68.7063 125.3 67.2406 126.175 65.6558 126.93L58.7922 130.25C55.3246 131.928 51.8035 133.522 48.3002 135.14L47.8235 135.354C46.6369 135.673 45.5726 136.338 44.7671 137.264C43.8317 138.745 44.7016 139.929 45.9587 140.792C47.2423 141.528 48.6602 142.002 50.1293 142.184C51.017 142.249 51.9167 142.321 52.8044 142.38C54.5002 142.4 56.188 142.147 57.8032 141.631C64.9527 138.351 72.1023 135.021 79.2519 131.642C82.1713 130.244 84.9775 128.596 87.8195 127.055C90.3338 125.687 92.7765 124.17 95.2431 122.718C101.153 119.226 107.064 115.662 113.218 112.605C114.682 112.074 116.104 111.436 117.472 110.695C117.927 110.534 118.321 110.236 118.6 109.843C118.878 109.449 119.028 108.979 119.028 108.497C119.028 108.015 118.878 107.545 118.6 107.151C118.321 106.757 117.927 106.459 117.472 106.298C116.247 105.594 114.895 105.139 113.492 104.96C111.794 104.706 110.067 104.706 108.369 104.96V104.966Z" fill="white"/>
<path d="M80.3303 125.034L77.7743 125.629C76.4779 125.979 75.3159 126.709 74.4378 127.723C72.7219 131.079 71.0299 134.44 69.1769 137.718C67.4253 140.843 65.6438 143.953 63.8326 147.046C60.5954 152.599 57.4179 158.171 54.2998 163.763C53.5193 165.156 52.7269 166.542 51.9167 167.928C50.8085 169.897 49.462 171.884 49.1641 174.163C49.2228 174.682 49.4128 175.177 49.7161 175.603C50.0193 176.029 50.426 176.37 50.8978 176.596C52.2533 177.374 53.7499 177.875 55.3008 178.071C57.1791 178.351 59.0885 178.351 60.9668 178.071L63.4275 177.476C64.6765 177.134 65.7961 176.43 66.6448 175.454C67.3361 174.767 67.9367 173.996 68.4322 173.157C68.8671 172.414 69.2961 171.67 69.7191 170.914C70.5354 169.469 71.3337 168.011 72.144 166.56C73.8063 163.549 75.4507 160.521 77.1189 157.511C80.1992 151.96 83.4523 146.499 86.5683 140.96C88.5046 137.516 90.298 133.994 92.0973 130.478C92.4042 130.093 92.5714 129.616 92.5714 129.124C92.5714 128.633 92.4042 128.155 92.0973 127.771L90.7746 126.581C89.3675 125.775 87.8143 125.255 86.2049 125.052C84.2557 124.759 82.2735 124.759 80.3243 125.052L80.3303 125.034Z" fill="white"/>
<path d="M75.8558 141.64C74.9681 141.956 73.5918 142.557 73.562 143.711C73.4726 147.584 73.413 151.445 73.4309 155.306C73.4309 158.453 73.6811 161.606 73.8897 164.747C73.991 166.205 74.0684 167.668 74.1816 169.126C74.271 170.22 74.3186 171.327 74.4855 172.41C74.5714 173.329 74.954 174.195 75.5758 174.878C76.0488 175.38 76.6026 175.798 77.2142 176.116C78.5279 176.741 79.9181 177.191 81.3491 177.454C83.339 177.901 85.6865 177.669 87.6824 177.454C89.0997 177.253 90.4878 176.884 91.8172 176.354C94.1822 175.448 96.3974 174.193 98.3889 172.63C100.82 170.738 103.006 168.566 105.282 166.502C106.349 165.532 107.421 164.574 108.482 163.599C109.542 162.623 110.734 161.665 111.431 160.339C111.691 160.012 111.833 159.608 111.833 159.19C111.833 158.773 111.691 158.369 111.431 158.042L110.305 157.049C109.109 156.362 107.789 155.919 106.42 155.746C104.765 155.502 103.083 155.502 101.427 155.746L99.2588 156.263C98.1566 156.563 97.1691 157.185 96.4228 158.048C95.6442 158.782 94.9651 159.614 94.403 160.523C93.8668 161.35 93.2472 162.123 92.6454 162.903C90.9012 165.188 88.9701 167.325 86.8721 169.292C86.6636 169.477 86.4431 169.649 86.2287 169.822C85.9486 168.382 85.758 166.912 85.5792 165.485C85.2754 163.034 85.043 160.612 84.8583 158.149C84.4949 153.348 84.6498 148.518 84.763 143.705C84.7267 143.382 84.6086 143.074 84.4199 142.81C84.2313 142.545 83.9782 142.333 83.6846 142.194C82.4334 141.343 80.6282 141.141 79.1744 141.141H79.0791C77.9914 141.138 76.91 141.305 75.8737 141.634L75.8558 141.64Z" fill="white"/>
<path d="M132.093 112.405L129.931 112.916C128.833 113.218 127.849 113.839 127.106 114.701C125.468 118.271 123.788 121.876 122.001 125.41C121.196 126.998 120.213 128.521 119.307 130.044C118.279 131.539 117.375 133.114 116.603 134.756C116.339 135.081 116.196 135.486 116.196 135.904C116.196 136.322 116.339 136.727 116.603 137.052L117.723 138.052C118.919 138.738 120.239 139.18 121.607 139.354C123.265 139.598 124.949 139.598 126.606 139.354C128.507 139.051 130.27 138.486 131.611 137.052C132.833 135.64 133.864 134.074 134.679 132.394C135.507 130.847 136.365 129.306 137.116 127.718C138.792 124.148 140.44 120.579 142.061 117.009C142.319 116.683 142.459 116.28 142.459 115.864C142.459 115.449 142.319 115.045 142.061 114.719L140.941 113.731C139.749 113.046 138.433 112.606 137.068 112.434C135.419 112.189 133.742 112.189 132.093 112.434V112.405Z" fill="white"/>
<path d="M105.854 126.818C104.06 127.044 102.328 127.625 100.76 128.525L99.2887 129.834C98.9474 130.262 98.7616 130.792 98.7616 131.339C98.7616 131.886 98.9474 132.417 99.2887 132.844C104.71 138.716 110.114 144.665 115.667 150.454C119.999 155.017 124.848 159.074 129.287 163.542C131.843 166.118 134.238 168.837 136.604 171.579C137.7 172.846 138.784 174.126 139.869 175.411C141.358 177.195 142.895 179.45 144.957 180.545C148.751 182.449 153.061 183.075 157.242 182.329C159.129 182.092 160.951 181.485 162.604 180.545C163.18 180.269 163.676 179.851 164.045 179.331C164.414 178.81 164.644 178.204 164.713 177.57C164.552 176.719 164.22 175.91 163.736 175.19C163.563 174.97 163.361 174.78 163.17 174.596C162.789 174.191 162.39 173.792 161.979 173.406L159.458 170.764C157.671 168.866 155.884 166.957 154.066 165.077C152.023 162.959 149.943 160.912 147.81 158.878C145.916 157.093 143.932 155.356 141.96 153.631C140.172 151.983 138.385 150.347 136.627 148.705C135.883 148.015 135.209 147.229 134.5 146.498L130.926 142.773C126.85 138.544 122.948 134.147 119.01 129.822C118.033 128.689 116.737 127.874 115.292 127.484C113.374 126.834 111.359 126.512 109.334 126.532C108.184 126.532 107.037 126.623 105.902 126.806L105.854 126.818Z" fill="white"/>
<path d="M201.323 46.5227L199.853 46.8719C199.105 47.0747 198.434 47.4965 197.927 48.083C196.83 50.4831 195.781 52.923 194.559 55.2656C193.439 57.4094 192.372 59.5884 191.155 61.6836C188.632 66.0241 186.082 70.3484 183.506 74.6565C181.239 78.44 178.957 82.2133 176.658 85.9762C175.538 87.8106 174.387 89.6272 173.267 91.4615C172.802 92.2306 172.324 92.9909 171.872 93.7688C171.116 95.0683 170.049 96.58 170 98.1049C170.038 98.4451 170.161 98.77 170.36 99.0492C170.558 99.3284 170.824 99.5525 171.133 99.7006C172.022 100.211 173.003 100.54 174.019 100.669C175.251 100.85 176.502 100.85 177.733 100.669C178.977 100.47 180.659 100.067 181.452 98.958C182.244 97.8485 182.78 96.5314 183.395 95.307C183.985 94.1814 184.575 93.0557 185.166 91.9301C186.219 89.9278 187.335 87.952 188.441 85.9895C190.82 81.7669 193.221 77.559 195.643 73.3658C196.608 71.695 197.578 70.0286 198.525 68.3534C199.222 67.1276 199.915 65.9032 200.606 64.6804C201.048 63.9157 201.491 63.1643 201.911 62.3819L205.138 56.1408C205.528 55.385 205.86 54.6026 206.214 53.8291C206.854 52.4324 207.495 51.0356 208.135 49.6389C208.313 49.4187 208.411 49.1441 208.411 48.8609C208.411 48.5778 208.313 48.3032 208.135 48.083C207.489 47.062 205.802 46.6907 204.74 46.5227C203.615 46.3518 202.47 46.3518 201.345 46.5227H201.323Z" fill="white"/>
<path d="M192.277 64.8321C191.441 65.1601 190.277 65.7437 190.212 66.9205C189.592 77.9314 188.566 88.8989 187.626 99.8809C187.372 102.876 187.092 105.871 186.824 108.871C186.695 110.318 186.553 111.789 186.393 113.245C186.316 114.003 186.225 114.75 186.143 115.503C186.096 115.922 186.066 116.342 186.027 116.757C186.005 116.997 185.997 117.239 186.001 117.48C186.002 117.982 186.082 118.48 186.238 118.951C186.276 119.335 186.401 119.702 186.6 120.017C186.8 120.331 187.069 120.584 187.38 120.75C188.708 121.758 190.618 121.999 192.161 121.999C193.348 122.014 194.53 121.816 195.661 121.411C196.657 121.015 197.993 120.34 198.083 118.951C198.157 117.919 198.178 116.884 198.148 115.85C198.148 115.136 198.101 114.427 198.079 113.713C198.04 112.522 198.006 111.326 198.019 110.135C198.05 107.337 198.114 104.542 198.208 101.747C198.398 96.4807 198.717 91.2284 199.032 85.9714C199.195 83.1547 199.463 80.3429 199.635 77.5311C199.862 73.9942 199.807 62.8267 200 59.2898C199.968 58.9637 199.862 58.6522 199.692 58.3847C199.692 58.3847 200.976 54.0875 198.055 60.6333C196.107 63.3621 196.545 64.3305 195.23 64.3305H195.148C194.167 64.3216 193.191 64.4843 192.256 64.8128L192.277 64.8321Z" fill="white"/>
<path d="M218.525 40.5039C217.59 40.831 216.391 41.3879 216.285 42.5283C216.019 45.4765 215.74 48.4247 215.43 51.3684C215.321 52.4027 215.202 53.4341 215.072 54.4625C214.992 55.0901 214.912 55.7178 214.837 56.3454C214.784 56.8184 214.713 57.2869 214.691 57.7643C214.625 58.9267 215.497 59.8373 216.462 60.3456C219.321 61.8661 222.752 61.8042 225.846 61.1677C228.014 60.6979 230.135 60.0306 232.181 59.1743C234.173 58.361 236.116 57.4062 238.064 56.5222C240.011 55.6382 242.096 54.6437 244.075 53.6315L249.931 50.6037C249.998 51.4215 250.038 52.248 250.082 53.0613C250.148 54.1973 250.21 55.3332 250.197 56.4692C250.197 57.7598 250.122 59.0417 250.033 60.3279C249.978 61.3527 249.839 62.3713 249.617 63.3733C249.046 63.5369 248.462 63.6783 247.895 63.8153C246.527 64.191 244.593 65.4596 245.62 67.0862C246.22 67.7764 247.012 68.2733 247.895 68.5139C249.755 69.0979 251.725 69.2401 253.65 68.9293C255.085 68.7177 256.507 68.4225 257.908 68.0453C258.918 67.791 259.878 67.3664 260.745 66.79C261.218 66.4528 261.644 66.0545 262.011 65.6055C262.082 65.4822 262.14 65.3518 262.184 65.2165C262.34 64.8317 262.471 64.4375 262.578 64.0363C262.906 62.8739 262.817 61.5478 262.804 60.3544C262.804 58.0825 262.702 55.815 262.503 53.5519C262.37 51.4816 262.104 49.422 261.706 47.3859C261.495 46.4989 261.199 45.6344 260.821 44.8046C260.276 43.5714 258.815 42.9703 257.665 42.515C256.432 42.1003 255.129 41.935 253.831 42.0288L251.928 42.1703C251.286 42.2984 250.648 42.4576 250.015 42.6388C249.608 42.7627 249.208 42.9133 248.82 43.0896C246.368 44.1151 244.048 45.4853 241.693 46.7141C239.206 48.0401 236.736 49.3661 234.208 50.5905C231.68 51.8148 229.268 52.9685 226.785 54.1265L226.218 54.3741C226.218 54.2989 226.218 54.2282 226.218 54.1575C226.267 53.0967 226.36 52.0358 226.453 50.975C226.692 48.1506 226.948 45.3306 227.205 42.5106C227.17 42.1941 227.055 41.8916 226.871 41.6318C226.687 41.3719 226.439 41.1632 226.152 41.0255C224.93 40.1989 223.168 40 221.725 40H221.623C220.563 39.9999 219.508 40.1639 218.498 40.4862L218.525 40.5039ZM249.564 63.5501H249.537H249.564Z" fill="white"/>
<path d="M233.743 66.5477C232.858 66.8659 231.574 67.4317 231.508 68.5721C231.273 72.6783 231.857 76.8111 232.256 80.8952C232.49 83.313 232.672 85.7573 232.871 88.1618C233.07 90.5663 233.177 92.9443 233.314 95.34C233.451 97.7357 233.438 100.14 233.464 102.54C233.509 105.948 233.283 109.36 233.07 112.759C232.96 114.554 232.756 116.34 232.548 118.125C232.464 118.846 232.349 119.566 232.22 120.274C232.141 120.694 232.065 121.113 231.977 121.529C231.835 122.201 231.614 122.961 231.813 123.642L231.88 123.597C232.207 125.635 238.581 126.806 240.985 126.585L242.906 126.143C243.88 125.879 244.753 125.329 245.412 124.565C245.632 124.36 245.806 124.11 245.921 123.832C246.321 122.898 246.491 121.883 246.417 120.87C246.387 119.721 246.344 118.572 246.288 117.423C246.179 114.956 246.077 112.491 245.983 110.028C245.815 105.458 245.54 100.883 245.097 96.3257C244.664 92.1089 244.205 87.8937 243.721 83.6799C243.53 81.987 243.327 80.2985 243.128 78.6056C242.729 75.2729 242.273 71.9402 242.455 68.5765C242.42 68.261 242.306 67.9593 242.123 67.7002C241.939 67.4411 241.692 67.2331 241.406 67.0958C240.184 66.2692 238.422 66.0703 236.979 66.0703H236.882C235.821 66.0687 234.767 66.2312 233.756 66.5521L233.743 66.5477Z" fill="white"/>
<path d="M221.636 84.063L220.406 84.642C220.108 84.7844 219.851 85.0004 219.659 85.2695C219.468 85.5387 219.349 85.8521 219.312 86.1802C218.626 88.6466 217.852 91.0732 217.064 93.5087C216.264 95.7217 215.466 97.9317 214.669 100.139C214.355 101.023 213.965 101.854 213.615 102.702L211.716 107.317C210.831 109.483 209.76 111.582 208.764 113.7C207.812 115.728 206.741 117.709 205.665 119.675C204.882 121.108 204.085 122.526 203.279 123.945L202.009 126.155C201.687 126.728 201.424 127.333 201.225 127.959C201.159 128.144 201.092 128.33 201.03 128.511C200.84 129.064 201.172 129.696 201.473 130.142C202.056 130.814 202.827 131.298 203.686 131.53C204.858 131.905 206.082 132.088 207.312 132.074C209.348 132.074 211.69 131.711 213.137 130.142C214.023 129.205 214.514 128.016 215.032 126.858C215.55 125.7 216.09 124.511 216.621 123.322C217.626 121.112 218.631 118.902 219.618 116.692C220.605 114.482 221.526 112.228 222.473 109.991C223.469 107.648 224.314 105.235 225.231 102.857C226.342 99.9797 227.28 97.0315 228.285 94.1187C229.17 91.4976 229.949 88.8146 230.684 86.1625C230.648 85.8345 230.529 85.521 230.337 85.2519C230.146 84.9827 229.889 84.7667 229.591 84.6244C228.32 83.7624 226.492 83.5547 225.009 83.5547H224.908C223.805 83.554 222.709 83.724 221.658 84.0586L221.636 84.063Z" fill="white"/>
<path d="M250.941 78.0814C249.693 78.2431 248.49 78.6486 247.399 79.2748L246.368 80.1898C246.129 80.4894 245.999 80.861 245.999 81.244C245.999 81.6269 246.129 81.9985 246.368 82.2981C248.687 86.9923 250.88 91.7438 252.946 96.5529C254.858 101.004 256.784 105.45 258.891 109.813C259.944 112.023 261.015 114.193 262.073 116.386C262.689 117.654 263.339 119.334 264.694 120.001C266.049 120.669 267.31 121.279 268.917 121.473C270.595 121.722 272.3 121.733 273.981 121.504L276.066 121.009C277.123 120.72 278.069 120.123 278.784 119.294C279.669 118.388 279.342 117.455 278.868 116.554C278.547 116.022 278.191 115.513 277.801 115.029C276.535 113.225 275.367 111.316 274.26 109.402C273.051 107.272 271.825 105.128 270.767 102.913C269.948 101.203 269.098 99.5099 268.324 97.7816C267.465 95.8766 266.624 93.9627 265.752 92.0577C263.933 88.0796 262.069 84.1015 260.121 80.1898C259.435 79.3989 258.529 78.8296 257.518 78.5543C256.174 78.1004 254.763 77.8763 253.344 77.8913C252.539 77.8915 251.736 77.9551 250.941 78.0814Z" fill="white"/>
<path d="M323.804 41.1274C322.099 41.4739 320.465 42.0927 318.967 42.9583C318.177 43.4018 317.37 43.8227 316.583 44.2417C314.35 45.4234 312.136 46.6033 309.946 47.8635C308.306 48.7999 306.719 49.8235 305.133 50.8518C303.673 51.7905 302.184 52.6835 300.701 53.5808C299.717 54.0864 298.718 54.5448 297.681 54.9681L295.761 55.5476C294.366 55.854 293.045 56.426 291.877 57.2301C290.731 58.1488 289.998 59.3488 291.032 60.6385C291.875 61.4242 292.939 61.9511 294.092 62.1539L296.38 62.4564C298.114 62.5446 299.853 62.38 301.54 61.9681C303.782 61.2998 306.034 60.6402 308.209 59.7987C310.101 59.0278 311.924 58.1071 313.661 57.046C316.035 55.6568 318.372 54.2565 320.742 52.8775C322.588 51.8973 324.472 50.9912 326.373 50.1078C327.443 49.6087 328.531 49.1466 329.589 48.6243L331.152 47.8262C331.981 47.4183 332.787 46.9663 333.564 46.4723C334.749 45.7003 335.062 44.9283 335.247 43.6589L334.702 42.5072C333.82 41.6887 332.705 41.1455 331.498 40.9474C329.945 40.5977 328.34 40.5099 326.754 40.688C325.76 40.7821 324.774 40.9482 323.789 41.1336L323.804 41.1274Z" fill="white"/>
<path d="M312.596 31.3495C311.872 31.6811 311.026 32.173 311.003 33.0584C310.884 38.3882 311.104 43.7187 311.662 49.019C311.916 51.7043 312.275 54.3747 312.66 57.0428C313.029 59.608 313.287 62.1738 313.496 64.7543C313.632 66.1953 313.734 67.6396 313.779 69.0892C313.792 69.7083 313.805 70.3273 313.814 70.9517C313.814 71.2792 313.819 71.6013 313.826 71.943C313.833 72.3511 313.92 72.7539 314.081 73.1297C314.156 73.4891 314.324 73.8233 314.568 74.1006C314.813 74.3779 315.126 74.5892 315.478 74.7143C316.996 75.5284 319.108 75.5617 320.752 75.4061C322.033 75.2952 323.289 74.987 324.474 74.4931C325.446 74.0488 326.979 73.2139 326.872 71.919C326.843 71.5364 326.758 71.1601 326.619 70.8016C326.518 70.5333 326.397 70.2719 326.281 70.0099C326.032 69.4182 325.817 68.8132 325.603 68.2083C325.163 66.9895 324.86 65.7181 324.509 64.4711C323.82 61.8567 323.24 59.2121 322.606 56.5777C321.314 51.3906 320.388 46.1214 319.835 40.8071C319.545 37.9663 319.432 35.1101 319.497 32.2545C319.447 32.0166 319.336 31.7955 319.174 31.6119C319.012 31.4284 318.804 31.2886 318.571 31.2058C317.561 30.6612 316.175 30.6386 315.064 30.7438L314.989 30.7509C314.161 30.8287 313.351 31.031 312.586 31.3505L312.596 31.3495Z" fill="white"/>
<path d="M344.116 59.3389C343.077 59.6487 342.056 60.0138 341.057 60.4327L340.253 60.7686C339.701 60.9974 339.15 61.2261 338.589 61.4164C337.464 61.8466 336.328 62.2777 335.229 62.774C332.86 63.8563 330.524 64.9699 328.226 66.1778C323.678 68.5696 319.168 70.9971 314.485 73.1123C310.883 74.7429 307.191 76.1514 303.48 77.5177C299.559 78.9626 295.602 80.2884 291.739 81.8799C290.71 82.2657 289.819 82.9476 289.181 83.8381C288.468 85.2344 289.347 86.2153 290.556 86.8707C291.763 87.419 293.069 87.7222 294.396 87.7624C296.724 87.9008 299.053 87.5127 301.209 86.6273C306.142 84.5963 311.243 82.9856 316.257 81.1871C318.815 80.2733 321.355 79.3268 323.855 78.2713C326.23 77.2571 328.595 76.1359 330.96 75.0147C334.541 73.3127 338.032 71.4034 341.586 69.6842C343.312 68.854 345.048 68.0327 346.797 67.2983C349.175 66.3132 351.536 65.5651 353.694 64.135C354.1 63.8945 354.437 63.5552 354.674 63.1491C354.91 62.7431 355.039 62.2839 355.046 61.8152C354.95 61.3559 354.738 60.9285 354.429 60.5734C354.121 60.2183 353.726 59.9471 353.282 59.7855C351.996 59.2076 350.607 58.8875 349.195 58.8436C347.48 58.7508 345.762 58.9135 344.095 59.3262L344.116 59.3389Z" fill="white"/>
<path d="M322.772 73.3291L321.22 73.8583C320.438 74.1534 319.761 74.6758 319.278 75.3581C317.55 80.4876 315.773 85.6218 314.192 90.8269C312.548 96.2116 310.995 101.618 309.458 107.032C308.976 108.733 308.513 110.442 308.068 112.159C307.651 113.743 307.085 115.326 307.032 116.97C307.07 117.625 307.333 118.247 307.775 118.732C308.178 119.025 308.584 119.318 308.993 119.61C309.167 119.719 309.356 119.803 309.553 119.86C310.805 120.37 312.139 120.648 313.491 120.679C314.318 120.745 315.149 120.713 315.969 120.584C317.399 120.404 318.802 120.053 320.147 119.538C322.648 118.685 324.894 117.142 326.923 115.504C328.932 113.851 330.818 112.054 332.567 110.128L336.458 105.941L336.138 106.285C337.164 105.194 338.184 104.104 339.215 103.014L339.429 103.381C340.821 105.787 342.302 108.144 343.732 110.532C344.423 111.683 345.236 112.763 345.993 113.868C346.749 114.974 347.519 115.969 348.279 117.009C349.811 119.049 351.37 121.077 352.962 123.071C354.328 124.784 355.689 126.289 357.619 127.398C359.079 128.06 360.655 128.427 362.258 128.478C365.077 128.692 367.907 128.218 370.503 127.097C371.745 126.626 372.819 125.799 373.591 124.719L373.929 123.351C373.817 122.831 373.575 122.349 373.226 121.947C372.876 121.546 372.431 121.24 371.931 121.057C371.582 120.837 371.234 120.627 370.875 120.407C369.01 118.729 367.256 116.931 365.625 115.025C363.797 112.989 362.05 110.885 360.382 108.712C358.788 106.639 357.363 104.459 355.914 102.287C354.321 99.9054 352.796 97.4575 351.053 95.1841C350.758 94.794 350.44 94.4211 350.102 94.0675C349.816 93.7718 349.55 93.4841 349.225 93.2119C348.25 92.3191 347.058 91.6973 345.767 91.4088C344.352 91.1025 342.897 91.0223 341.457 91.1712C339.982 91.3064 338.536 91.6677 337.171 92.2423C336.522 92.5365 335.912 92.9112 335.357 93.3575C334.996 93.64 334.624 93.9234 334.274 94.2099C332.656 95.6684 331.117 97.2115 329.662 98.8327C326.67 102.006 323.733 105.239 320.785 108.458C320.896 107.951 321.016 107.482 321.144 106.994C322.472 101.793 323.892 96.6211 325.405 91.4788C326.943 86.2829 328.7 81.1456 330.407 76.0032C330.573 75.7471 330.647 75.4426 330.619 75.1389C330.59 74.8352 330.459 74.5501 330.248 74.3298C329.449 73.293 327.599 73.0907 326.431 72.9927C325.203 72.9302 323.972 73.0467 322.778 73.3384L322.772 73.3291Z" fill="white"/>
<path d="M252.622 164.34C250.478 164.34 248.124 164.682 246.248 165.828C243.368 167.576 240.509 169.373 237.671 171.218C235.286 172.77 232.992 174.478 230.703 176.142C228.414 177.807 226.168 179.461 223.959 181.206C222.887 182.046 221.869 182.924 220.856 183.823C220.024 184.497 219.253 185.242 218.551 186.05C217.755 187.098 217.163 188.285 216.803 189.55C216.175 191.711 215.672 193.905 215.297 196.123C215.007 197.585 214.761 199.057 214.503 200.523C214.042 203.087 213.683 205.678 213.346 208.263C212.579 214.199 211.818 220.14 210.815 226.044C210.458 228.221 210.086 230.398 209.7 232.574C209.556 233.409 209.406 234.244 209.25 235.085C209.138 235.738 209.009 236.391 208.918 237.049C208.83 237.582 208.843 238.127 208.955 238.655C209.148 239.217 210.001 241.044 210.743 241.528C210.85 241.823 212.185 242.829 212.7 243.214C214.032 243.977 214.775 244.627 216.299 244.822C218.147 245.095 219.849 244.645 221.697 244.372C223.047 243.922 224.401 242.784 225.734 242.022C226.197 241.799 226.595 241.463 226.893 241.044C227.19 240.626 227.376 240.139 227.433 239.629C227.433 238.912 227.588 238.211 227.588 237.488C227.588 236.996 227.631 236.503 227.631 236.011C227.631 235.229 227.631 234.448 227.631 233.666C227.658 232.328 227.696 230.99 227.792 229.646C228.007 226.719 228.221 223.791 228.494 220.868C229.057 214.718 229.615 208.557 230.317 202.439C230.542 200.518 230.853 198.607 231.175 196.696C231.478 194.365 231.929 192.055 232.525 189.781C233.007 188.756 233.678 187.831 234.503 187.056C238.095 184.021 242.008 181.366 245.819 178.647C250.108 175.618 254.498 172.824 258.963 170.11C259.378 169.911 259.735 169.61 260.001 169.235C260.267 168.861 260.434 168.425 260.486 167.969C260.486 166.363 258.47 165.469 257.269 165.041C255.808 164.576 254.284 164.339 252.75 164.34H252.622Z" fill="white"/>
<path d="M249.095 186.039C247.415 186.563 245.797 187.269 244.27 188.143C243.252 188.678 242.233 189.214 241.236 189.749C239.151 190.921 237.055 192.088 235.023 193.356C232.601 194.866 230.199 196.413 227.84 197.997C225.482 199.581 223.241 201.209 220.968 202.868C220.635 203.027 220.348 203.268 220.134 203.569C219.92 203.869 219.787 204.22 219.746 204.586C219.746 205.887 221.354 206.588 222.341 206.936C223.555 207.313 224.822 207.494 226.093 207.471L228.092 207.321C229.187 207.181 230.244 206.827 231.201 206.277C233.431 204.672 235.645 203.023 237.94 201.514C240.341 199.94 242.764 198.404 245.198 196.916C247.31 195.647 249.486 194.496 251.678 193.356C252.617 192.864 253.576 192.388 254.53 191.922C255.72 191.42 256.852 190.792 257.907 190.049C258.264 189.926 258.573 189.695 258.792 189.388C259.01 189.082 259.128 188.715 259.128 188.338C259.128 187.962 259.01 187.595 258.792 187.288C258.573 186.982 258.264 186.751 257.907 186.628C256.955 186.081 255.904 185.728 254.814 185.59C254.21 185.494 253.599 185.446 252.986 185.445C251.673 185.455 250.367 185.634 249.1 185.981L249.095 186.039Z" fill="white"/>
<path d="M258.62 198.005C257.304 197.992 255.994 198.189 254.739 198.588C253.496 199.059 252.307 199.66 251.191 200.381L249.304 201.671C248.173 202.447 247.047 203.25 245.889 203.978C243.3 205.584 240.695 207.157 238.047 208.688C235.619 210.091 233.099 211.364 230.623 212.676C228.146 213.987 225.723 215.379 223.338 216.84C222.266 217.504 221.161 218.168 220.078 218.853C219.769 219.002 219.503 219.228 219.306 219.509C219.109 219.79 218.987 220.117 218.953 220.458C218.953 221.663 220.448 222.31 221.349 222.632C222.467 222.994 223.636 223.174 224.812 223.167C226.388 223.167 228.178 222.926 229.545 222.064C232.37 220.287 235.254 218.639 238.165 217.017C240.636 215.641 243.236 214.464 245.766 213.195C251.03 210.567 256.165 207.714 261.252 204.765C262.603 203.983 263.858 203.255 264.86 202.008C266.179 200.365 263.67 199.032 262.501 198.62C261.288 198.235 260.022 198.038 258.749 198.037L258.62 198.005Z" fill="white"/>
<path d="M242.421 172.014C241.526 172.335 239.896 173.026 239.939 174.268C240.336 186.29 240.915 198.317 240.588 210.349C240.509 213.329 240.409 216.31 240.288 219.293C240.234 220.578 240.148 221.863 240.052 223.147C239.862 224.674 239.808 226.214 239.891 227.75C239.936 228.151 240.082 228.533 240.316 228.862C240.549 229.19 240.862 229.454 241.226 229.629C242.775 230.7 245.01 230.93 246.817 230.93C248.204 230.945 249.584 230.739 250.907 230.32L252.408 229.629C252.772 229.455 253.085 229.191 253.319 228.863C253.552 228.534 253.698 228.151 253.742 227.75C254.006 226.144 254.053 224.509 253.882 222.89C253.817 221.59 253.732 220.289 253.673 218.988C253.533 215.932 253.421 212.876 253.314 209.814C253.104 203.851 253.029 197.894 252.777 191.937C252.526 185.979 252.284 180.161 252.086 174.273C252.046 173.922 251.918 173.587 251.713 173.299C251.509 173.011 251.235 172.779 250.917 172.624C249.561 171.704 247.599 171.484 246.018 171.484H245.916C244.736 171.483 243.562 171.663 242.437 172.02L242.421 172.014Z" fill="white"/>
<path d="M261.113 221.583C259.263 221.779 257.441 222.176 255.677 222.766C254.248 223.234 252.818 223.73 251.389 224.254C248.521 225.325 245.723 226.524 242.914 227.728C233.169 231.914 223.38 236.03 213.871 240.74C213.567 240.886 213.305 241.106 213.11 241.38C212.915 241.655 212.793 241.974 212.756 242.309C212.756 243.502 214.235 244.139 215.125 244.45C216.229 244.809 217.384 244.99 218.545 244.985L220.379 244.851C221.381 244.722 222.347 244.398 223.225 243.898C224.881 243.079 226.554 242.293 228.226 241.511C233.624 239.129 239.028 236.774 244.495 234.553C249.679 232.449 254.852 230.319 260.089 228.36C260.116 228.424 260.137 228.494 260.164 228.558C260.32 229.013 260.48 229.462 260.636 229.917C261.242 231.71 261.687 233.553 261.965 235.425C262.26 237.234 262.437 239.054 262.635 240.874C262.807 242.517 262.984 244.161 263.171 245.804C263.311 247.094 263.289 248.427 263.348 249.727L263.547 254.389C263.611 255.867 263.547 257.365 263.514 258.843C263.514 260.084 263.541 261.332 263.471 262.589L263.182 267.942C263.098 270.162 262.738 272.362 262.11 274.494C261.656 275.861 260.976 277.144 260.1 278.288L259.869 278.438L259.087 278.701C258.015 278.503 256.942 278.262 255.87 278.021C254.479 277.812 253.064 277.812 251.673 278.021C250.527 278.161 249.419 278.524 248.414 279.091C248.041 279.223 247.718 279.467 247.49 279.79C247.262 280.112 247.139 280.498 247.139 280.893C247.139 281.287 247.262 281.673 247.49 281.995C247.718 282.318 248.041 282.562 248.414 282.694C249.593 283.277 250.794 283.839 252.011 284.337C254.849 285.494 257.899 286.042 260.963 285.943C262.615 285.899 264.26 285.694 265.873 285.332C266.945 285.092 268.017 284.851 269.089 284.524C270.01 284.203 270.906 283.815 271.77 283.363C272.795 282.82 273.732 282.123 274.546 281.297C275.34 280.569 275.656 279.38 275.994 278.412C276.583 276.609 276.964 274.745 277.13 272.856C277.252 271.239 277.281 269.616 277.216 267.996C277.216 266.224 277.178 264.447 277.157 262.675C277.13 259.902 276.975 257.13 276.873 254.363C276.824 252.891 276.658 251.419 276.546 249.952C276.449 248.576 276.422 247.163 276.24 245.798C275.806 242.496 275.458 239.177 274.879 235.902C274.544 233.732 273.961 231.607 273.142 229.569C272.772 228.708 272.413 227.846 272.07 226.99C271.818 226.395 271.534 225.823 271.255 225.25C271.067 224.886 270.853 224.538 270.633 224.179C270.262 223.615 269.78 223.131 269.218 222.756C268.078 222.109 266.821 221.696 265.519 221.541C264.72 221.471 264.099 221.434 263.493 221.434C262.775 221.434 262.083 221.482 261.145 221.567L261.113 221.583Z" fill="white"/>
<path d="M213.464 247.897C211.561 248.25 209.652 248.657 207.787 249.181C206.086 249.678 204.433 250.328 202.85 251.124C201.889 251.576 200.989 252.146 200.17 252.821C198.594 254.181 196.878 255.567 195.881 257.414C195.156 258.83 194.569 260.312 194.128 261.84C193.603 263.404 193.243 265.019 193.056 266.657C192.981 267.392 192.981 268.133 193.056 268.868C193.224 269.928 193.517 270.965 193.93 271.956C194.177 272.658 194.466 273.348 194.745 274.039C194.962 274.287 195.211 274.507 195.485 274.692L194.75 275.029C194.303 275.243 193.918 275.567 193.631 275.97C193.344 276.374 193.165 276.844 193.11 277.336C192.81 278.497 194.22 279.632 194.97 280.167C195.195 280.323 195.415 280.472 195.645 280.617C196.206 280.967 196.786 281.285 197.382 281.57C200.248 283.098 203.359 284.114 206.575 284.572C209.328 284.887 212.109 284.868 214.857 284.514C215.538 284.433 216.219 284.353 216.894 284.225C218.47 283.93 220.041 283.566 221.579 283.122C223.136 282.625 224.621 281.927 225.996 281.045C227.562 280.053 229.002 278.876 230.285 277.539C231.212 276.619 232.091 275.65 232.965 274.66C235.013 272.288 236.138 269.564 237.162 266.631C237.738 265.157 238.032 263.588 238.031 262.006C237.944 260.505 237.667 259.021 237.205 257.59C236.951 256.556 236.518 255.574 235.924 254.689C235.71 254.416 235.49 254.154 235.259 253.886C234.449 253.006 233.576 252.185 232.649 251.429C232.179 251.017 231.665 250.658 231.116 250.359C229.98 249.724 228.793 249.187 227.567 248.753C224.801 247.839 221.904 247.382 218.99 247.399C217.135 247.405 215.285 247.585 213.464 247.934V247.897ZM217.216 254.095C217.468 254.245 217.709 254.4 217.945 254.566C218.51 255.242 218.976 255.996 219.328 256.803C219.646 258.222 219.776 259.676 219.714 261.128C219.665 262.536 219.412 263.93 218.963 265.266C217.636 268.903 215.469 272.176 212.638 274.82C212.092 275.247 211.519 275.639 210.923 275.992L210.247 275.725L209.802 275.505C209.031 275.12 208.301 274.793 207.487 274.435C206.59 274.072 205.652 273.822 204.694 273.691C204.763 273.5 204.782 273.296 204.749 273.096C204.716 272.897 204.633 272.709 204.506 272.551C204.276 271.962 204.045 271.373 203.82 270.784C203.44 269.59 203.291 268.335 203.381 267.086C203.495 265.851 203.761 264.636 204.174 263.467C204.879 261.319 206.042 259.349 207.583 257.692C208.633 256.841 209.756 256.083 210.939 255.428C211.844 255.076 212.768 254.773 213.705 254.518C214.605 254.357 215.501 254.229 216.385 254.122H217.189L217.216 254.095Z" fill="#1DFFFF"/>
<path d="M310.269 158.673C307.984 158.621 305.724 159.146 303.697 160.199C298.443 163.02 293.34 166.087 288.264 169.207C283.429 172.19 278.504 175.013 273.49 177.675C272.499 178.21 271.507 178.745 270.51 179.254C270.087 179.457 269.722 179.764 269.45 180.145C269.178 180.527 269.008 180.972 268.955 181.438C268.955 183.097 271.014 183.991 272.252 184.43C273.793 184.917 275.401 185.157 277.017 185.142L279.564 184.954C280.957 184.777 282.302 184.326 283.52 183.627C294.075 178.199 304.254 172.092 314.45 166.033L316.824 164.609C317.252 164.405 317.62 164.096 317.894 163.71C318.168 163.324 318.338 162.874 318.39 162.404C318.39 160.734 316.315 159.835 315.061 159.391C313.555 158.911 311.983 158.667 310.403 158.668L310.269 158.673Z" fill="white"/>
<path d="M295.49 148.503L294.257 149.071C293.957 149.213 293.698 149.43 293.506 149.701C293.313 149.972 293.194 150.287 293.158 150.617C292.188 154.996 291.105 159.347 289.786 163.64C289.138 165.749 288.537 167.885 287.83 169.978C287.122 172.07 286.463 174.024 285.777 176.042C284.399 179.698 283.037 183.364 281.622 186.999C280.807 189.092 280.014 191.184 279.162 193.272C278.792 194.203 278.417 195.135 278.047 196.061L277.511 197.436C277.414 197.682 277.323 197.923 277.232 198.17C277.071 198.608 276.916 199.053 276.766 199.492C276.663 199.817 276.618 200.157 276.632 200.498C276.67 200.864 276.802 201.214 277.015 201.514C277.228 201.814 277.515 202.054 277.848 202.211C278.803 202.757 279.856 203.11 280.947 203.249C282.269 203.447 283.613 203.447 284.935 203.249L286.666 202.837C287.546 202.599 288.334 202.103 288.929 201.413C290.333 198.357 291.217 195.022 292.263 191.827C293.238 188.861 294.218 185.898 295.2 182.936C295.994 180.544 296.851 178.178 297.602 175.774C298.518 172.852 299.435 169.94 300.282 167.002C301.047 164.379 301.788 161.749 302.507 159.112C303.273 156.302 303.927 153.46 304.554 150.617C304.518 150.288 304.398 149.973 304.205 149.702C304.013 149.431 303.755 149.214 303.455 149.071C302.18 148.209 300.341 148 298.856 148H298.754C297.647 147.998 296.545 148.168 295.49 148.503Z" fill="white"/>
<path d="M292.976 169.779C291.705 169.94 290.479 170.352 289.368 170.989C288.526 171.556 287.224 172.97 288.323 174.051C291.255 176.925 294.182 179.837 296.857 182.952C298.127 184.429 299.381 185.912 300.609 187.416C301.767 188.819 302.828 190.365 304.163 191.613C304.903 192.465 305.878 193.079 306.967 193.379C309.256 194.119 311.692 194.293 314.064 193.887C315.418 193.716 316.724 193.278 317.907 192.597C318.979 191.864 319.976 190.649 319.017 189.343C318.42 188.599 317.768 187.901 317.066 187.256C316.396 186.586 315.731 185.907 315.066 185.232C313.646 183.787 312.289 182.283 310.912 180.8C308.099 177.771 305.217 174.809 302.265 171.915C301.572 171.111 300.653 170.533 299.628 170.256C298.268 169.797 296.84 169.571 295.404 169.587C294.585 169.585 293.768 169.65 292.96 169.779H292.976Z" fill="white"/>
<path d="M317.157 198.78C315.988 199.021 314.825 199.315 313.662 199.583C313.189 199.687 312.725 199.827 312.273 200.001C311.228 200.423 310.194 200.873 309.164 201.333C306.924 202.345 304.704 203.41 302.485 204.465C299.146 206.07 295.822 207.676 292.493 209.309C289.095 210.797 285.691 212.253 282.255 213.655C281.288 213.918 280.423 214.462 279.767 215.218C279.001 216.428 279.714 217.402 280.754 218.103C281.802 218.7 282.956 219.087 284.152 219.243L286.339 219.404C287.727 219.419 289.108 219.212 290.429 218.788C293.539 217.518 296.637 216.221 299.725 214.897C302.641 213.634 305.503 212.263 308.376 210.898C311.078 209.614 313.783 208.338 316.492 207.071L320.679 205.123C321.288 204.879 321.883 204.598 322.458 204.283C323.359 203.807 324.119 203.104 324.661 202.243L324.967 201.382C324.928 201.039 324.803 200.712 324.604 200.431C324.404 200.151 324.136 199.925 323.825 199.776C322.931 199.262 321.943 198.931 320.92 198.802C319.677 198.608 318.411 198.608 317.168 198.802L317.157 198.78Z" fill="white"/>
<path d="M313.806 201.071L312.032 201.885C311.603 202.092 311.234 202.405 310.958 202.793C310.683 203.182 310.51 203.633 310.456 204.106C311.448 207.35 312.327 210.615 313.179 213.901C313.833 216.428 314.471 218.997 314.986 221.556C315.522 224.333 316.197 227.106 316.626 229.906C317.071 232.801 317.58 235.692 317.945 238.593C318.266 241.167 318.642 243.742 318.91 246.327C319.167 248.816 319.515 251.316 319.665 253.821C319.837 256.604 319.998 259.382 320.084 262.165C320.121 263.418 320.132 264.676 320.148 265.912C320.202 267.212 320.173 268.513 320.062 269.809C318.733 270.344 317.28 270.762 316.192 271.698L314.997 272.769C314.718 273.115 314.566 273.545 314.566 273.989C314.566 274.433 314.718 274.864 314.997 275.21L316.192 276.28C317.463 277.009 318.866 277.48 320.319 277.666C322.788 278.022 325.297 278.002 327.76 277.608C329.266 277.335 330.762 276.949 332.23 276.537C333.787 276.076 335.291 275.454 336.717 274.68C338.299 273.845 338.781 272.64 339.162 271.024C339.296 270.082 339.268 269.125 339.081 268.192C338.724 265.184 338.366 262.178 338.009 259.173C337.35 253.446 336.465 247.751 335.532 242.045C335.039 239.069 334.519 236.114 333.973 233.155C333.426 230.195 332.793 227.186 332.123 224.21C330.88 218.638 329.529 213.056 327.894 207.585C327.545 206.424 327.197 205.257 326.822 204.095C326.767 203.622 326.593 203.17 326.317 202.782C326.04 202.394 324.694 200.491 324.264 200.284C322.289 199.334 320.77 200.338 318.636 200.338H318.497C316.905 200.336 315.323 200.58 313.806 201.061V201.071Z" fill="white"/>
<path d="M261.917 251.88C260.801 252.007 259.713 252.32 258.701 252.806C258.165 253.015 257.602 253.165 257.055 253.342C256.425 253.55 255.81 253.804 255.216 254.102C254.412 254.423 253.582 254.669 252.767 254.969C251.77 255.333 250.783 255.74 249.776 256.087C247.674 256.815 245.525 257.377 243.386 257.982C241.247 258.587 238.942 259.176 236.755 259.898C234.418 260.669 232.102 261.504 229.754 262.27C229.007 262.474 228.338 262.895 227.83 263.479C227.24 264.416 227.792 265.171 228.596 265.711C229.405 266.18 230.3 266.48 231.228 266.594C232.852 266.855 234.515 266.736 236.085 266.247C238.256 265.556 240.373 264.759 242.55 264.063C244.726 263.367 246.902 262.773 249.111 262.221C251.169 261.686 253.233 261.194 255.27 260.616C257.307 260.038 259.199 259.245 261.209 258.721L260.186 258.962C261.092 258.748 262.003 258.523 262.909 258.298C263.504 258.164 264.104 258.046 264.705 257.972C265.843 257.905 266.968 257.696 268.055 257.351C269.475 256.88 271.614 255.643 270.483 253.855C269.843 253.118 268.998 252.587 268.055 252.33C266.846 251.924 265.577 251.729 264.302 251.752C263.509 251.756 262.717 251.801 261.928 251.886L261.917 251.88Z" fill="white"/>
<path d="M311.485 219.929C310.772 220.014 310.064 220.132 309.34 220.266C308.067 220.475 306.812 220.787 305.588 221.197C303.873 221.825 302.227 222.628 300.678 223.595C298.195 225.22 295.863 227.063 293.709 229.103C292.719 230.001 291.821 230.997 291.029 232.074C290.656 232.558 290.312 233.063 290 233.588C289.361 234.758 288.849 235.993 288.472 237.271C287.614 239.947 287.754 242.731 288.075 245.487C288.451 248.699 289.019 252.119 290.938 254.785C291.28 255.264 291.662 255.713 292.08 256.128C292.646 256.687 293.247 257.209 293.881 257.691C294.804 258.293 295.789 258.795 296.818 259.19C297.855 259.603 298.933 259.903 300.035 260.084C300.372 260.148 300.705 260.212 301.048 260.26C302.286 260.421 303.546 260.496 304.8 260.539C306.008 260.556 307.215 260.486 308.413 260.33C309.11 260.255 309.801 260.169 310.488 260.041C312.319 259.712 314.132 259.287 315.918 258.767C318.736 257.837 321.461 256.649 324.06 255.218C324.341 255.086 324.582 254.884 324.763 254.632C324.943 254.38 325.055 254.086 325.089 253.778C325.089 252.681 323.728 252.098 322.913 251.803C321.7 251.399 320.418 251.238 319.142 251.33C317.866 251.422 316.621 251.764 315.478 252.338C314.813 252.681 314.143 253.018 313.473 253.345C312.224 253.872 310.942 254.319 309.635 254.683C308.644 254.859 307.657 255.004 306.66 255.116C306.328 255.116 306.001 255.116 305.674 255.116L305.374 255.074C305.099 254.91 304.834 254.731 304.58 254.538C303.689 253.55 302.986 252.407 302.506 251.166C301.873 248.706 301.53 246.18 301.482 243.641C301.442 242.504 301.49 241.366 301.627 240.236C301.746 239.258 301.967 238.295 302.286 237.362C303.246 235.302 304.594 233.447 306.258 231.897C308.37 230.098 310.664 228.525 313.103 227.203L313.677 226.999C314.111 226.93 314.551 226.866 314.99 226.817H315.414C315.794 226.935 316.175 227.058 316.566 227.155C319.614 228.09 322.873 228.09 325.92 227.155C327.023 226.851 328.011 226.229 328.761 225.367C329.614 224.013 328.847 222.83 327.636 222.064C325.883 220.967 324.135 220.603 322.141 220.17C320.715 219.903 319.271 219.742 317.821 219.688C317.285 219.645 316.7 219.629 316.137 219.629C314.581 219.644 313.028 219.753 311.485 219.955V219.929Z" fill="#1DFFFF"/>
<path d="M411.256 149.593C405.952 151.309 400.877 153.791 395.797 156.099C390.97 158.29 386.222 160.696 381.325 162.708C377.773 164.179 374.194 165.578 370.59 166.906C369.463 167.224 368.454 167.88 367.69 168.791C366.793 170.251 367.626 171.416 368.84 172.264C370.061 172.986 371.408 173.453 372.805 173.637C375.255 174.073 377.771 173.887 380.135 173.096C385.726 171.053 391.267 168.862 396.709 166.411C401.759 164.133 406.805 161.86 411.89 159.659C414.949 158.298 418.076 157.104 421.257 156.084C422.435 155.749 423.49 155.063 424.291 154.113C425.232 152.58 424.36 151.355 423.091 150.471C421.811 149.713 420.398 149.223 418.933 149.031C416.364 148.613 413.736 148.807 411.251 149.598L411.256 149.593Z" fill="white"/>
<path d="M374.808 187.38C373.867 187.726 372.093 188.522 372.164 189.901C372.47 195.714 372.832 201.526 373.142 207.339C373.279 209.904 373.401 212.464 373.425 215.035C373.425 216.344 373.425 217.659 373.425 218.989C373.425 219.616 373.425 220.244 373.425 220.872C373.477 222.028 373.717 223.422 374.526 224.243C375.145 224.993 375.965 225.531 376.879 225.785C379.379 226.595 382.054 225.917 384.554 225.107C385.459 224.848 386.27 224.311 386.883 223.565C387.364 222.598 387.578 222.187 387.499 221.099C387.429 220.412 387.339 219.725 387.25 219.038C387.085 217.793 386.972 216.532 386.859 215.282C386.615 212.726 386.422 210.161 386.215 207.601C385.744 201.714 385.401 195.817 385.085 189.921C385.044 189.527 384.908 189.151 384.69 188.829C384.472 188.506 384.179 188.247 383.838 188.077C382.394 187.044 380.309 186.797 378.625 186.797H378.497C377.244 186.795 375.997 186.998 374.804 187.4L374.808 187.38Z" fill="white"/>
<path d="M413.134 170.968C411.945 171.144 410.787 171.411 409.594 171.692C407.305 172.203 405.05 172.855 402.843 173.642C400.162 174.648 397.533 175.758 394.923 176.955C393.77 177.487 392.647 178.025 391.525 178.623C390.402 179.221 389.269 179.91 388.152 180.599C385.999 181.893 383.924 183.309 381.936 184.841C379.11 187.158 376.469 189.691 374.037 192.415C373.869 192.631 373.778 192.896 373.778 193.169C373.778 193.442 373.869 193.707 374.037 193.923C374.674 194.928 376.343 195.29 377.395 195.456C379.575 195.803 382.508 195.642 384.111 193.923C385.628 192.305 387.115 190.671 388.748 189.178C391.433 186.954 394.31 184.969 397.345 183.247C398.003 182.865 398.645 182.443 399.323 182.106L401.442 181.056C403.409 180.207 405.381 179.342 407.404 178.628C408.633 178.196 409.857 177.739 411.111 177.377C411.966 177.131 412.815 176.904 413.67 176.688L414.064 176.613L414.181 176.899C414.91 179.509 415.371 182.184 415.556 184.886C415.693 186.308 415.758 187.726 415.819 189.153C415.86 190.184 415.961 191.229 415.946 192.259L415.885 196.165C415.85 198.235 415.693 200.291 415.501 202.347C415.308 204.403 414.605 206.368 414.798 208.429C415.015 210.675 418.161 211.399 419.915 211.675C421.483 211.907 423.076 211.907 424.644 211.675L426.702 211.173C427.744 210.892 428.678 210.307 429.382 209.494C429.909 208.591 430.227 207.584 430.313 206.544C430.348 205.825 430.343 205.106 430.343 204.388C430.343 203.02 430.272 201.653 430.222 200.291C430.116 197.602 429.949 194.913 429.812 192.249C429.731 190.701 429.534 189.158 429.398 187.615C429.146 184.671 428.664 181.75 427.956 178.88C427.683 177.836 427.346 176.811 426.945 175.809C426.643 175.002 426.228 174.242 425.711 173.552C424.892 172.461 423.557 171.853 422.313 171.411C420.624 170.893 418.866 170.632 417.099 170.637H416.643C415.467 170.658 414.294 170.766 413.134 170.958V170.968Z" fill="white"/>
<path d="M418.222 184.375C417.451 184.416 416.685 184.472 415.914 184.544C415.263 184.658 414.623 184.829 414.001 185.055C413.746 185.142 413.501 185.239 413.26 185.341C412.589 185.622 411.928 185.929 411.258 186.24L411.047 186.338L410.952 186.384L410.877 186.419L410.947 186.384C410.657 186.506 410.361 186.66 409.946 186.864L409.871 186.9L409.73 186.966C408.729 187.431 407.728 187.922 406.756 188.402C404.689 189.425 402.616 190.391 400.553 191.403C398.19 192.558 395.862 193.774 393.544 194.98C391.188 196.238 388.91 197.642 386.724 199.187C383.595 201.364 380.846 203.919 378.062 206.475C377.904 206.675 377.818 206.925 377.818 207.183C377.818 207.44 377.904 207.69 378.062 207.89C378.633 208.821 380.135 209.158 381.067 209.311C382.062 209.464 383.075 209.464 384.071 209.311L385.382 208.994C386.049 208.81 386.645 208.425 387.095 207.89L387.936 207.124L389.012 206.148L388.897 206.255C390.772 204.56 392.759 202.999 394.845 201.584C395.902 200.863 396.993 200.204 398.09 199.539C399.091 198.972 400.047 198.384 401.059 197.888L405.43 195.762C408.018 194.617 410.602 193.467 413.23 192.42C414.599 191.874 415.966 191.336 417.331 190.805C417.961 190.588 418.587 190.359 419.208 190.12L419.764 189.931L420.72 189.614C420.876 189.563 421.026 189.496 421.181 189.44C421.65 189.258 422.107 189.045 422.548 188.801C422.903 188.5 423.244 188.183 423.549 187.856C424.41 187.012 423.384 185.883 422.748 185.443L421.567 184.891C420.516 184.551 419.42 184.378 418.317 184.38L418.222 184.375ZM410.942 186.363L411.137 186.271L410.937 186.363H410.942ZM411.223 186.235L411.142 186.271L411.232 186.23L411.223 186.235ZM411.223 186.235L411.383 186.159L411.202 186.246L411.223 186.235ZM411.953 185.893L411.403 186.148L412.034 185.852L411.953 185.893ZM412.034 185.852H412.064H412.034Z" fill="white"/>
<path d="M415.825 206.401C413.926 206.83 412.055 207.379 410.222 208.044C409.036 208.437 407.844 208.815 406.657 209.225C404.06 210.122 401.457 211.003 398.88 211.969C396.41 212.898 393.92 213.816 391.511 214.897C388.32 216.335 385.14 217.804 381.972 219.305L381.901 219.341C380.241 220.113 378.58 220.858 376.884 221.55C376.093 221.765 375.384 222.221 374.847 222.857C374.226 223.87 374.801 224.683 375.642 225.271C376.491 225.771 377.427 226.094 378.397 226.221C380.098 226.542 381.85 226.414 383.49 225.848C386.072 224.798 388.583 223.618 391.129 222.453C392.295 221.928 393.446 221.403 394.623 220.879C395.972 220.307 397.312 219.661 398.697 219.152C401.615 218.077 404.529 217.053 407.477 216.057C410.024 215.212 412.626 214.509 415.213 213.816C416.375 213.506 417.546 213.207 418.712 212.908C419.805 212.673 420.885 212.375 421.946 212.016C423.331 211.491 425.511 210.295 424.365 208.422C423.728 207.662 422.886 207.114 421.946 206.848C420.678 206.406 419.348 206.184 418.009 206.192C417.276 206.189 416.545 206.258 415.825 206.396V206.401Z" fill="white"/>
<path d="M447.932 212.533C446.187 213.09 444.447 213.648 442.707 214.22C440.972 214.753 439.269 215.384 437.604 216.112C433.898 217.82 430.293 219.723 426.622 221.502C424.428 222.494 422.229 223.486 420.066 224.494C417.696 225.588 415.281 226.539 412.84 227.449C410.4 228.36 407.898 229.301 405.372 230.062C403.012 230.778 400.703 231.637 398.403 232.527C393.391 234.47 388.379 236.393 383.371 238.347C377.688 240.566 371.935 242.688 366.408 245.281C364.84 246.093 363.317 246.991 361.844 247.97L357.215 250.793C356.884 250.954 356.598 251.199 356.385 251.503C356.173 251.807 356.04 252.161 356 252.532C356 253.851 357.609 254.577 358.582 254.91C359.787 255.297 361.044 255.489 362.308 255.477C364.082 255.543 365.84 255.127 367.401 254.27L372.02 251.453C373.417 250.599 374.794 249.683 376.246 248.942C378.606 247.919 381.042 246.989 383.437 246.048C386.003 245.025 388.6 244.079 391.182 243.097C396.184 241.202 401.197 239.318 406.219 237.447C408.604 236.562 411.01 235.733 413.455 235.033C415.901 234.332 418.442 233.412 420.913 232.537C425.956 230.753 430.867 228.6 435.759 226.432C438.764 225.102 441.756 223.739 444.735 222.341C446.528 221.486 448.382 220.77 450.281 220.198C451.824 219.769 453.357 219.298 454.9 218.879H454.976C456.315 218.706 457.607 218.267 458.778 217.585C459.943 216.782 460.74 215.683 459.883 214.307L458.753 213.336C457.583 212.652 456.291 212.212 454.951 212.042C454.146 211.911 453.331 211.846 452.515 211.848C450.961 211.846 449.415 212.084 447.932 212.553V212.533Z" fill="white"/>
<path d="M393.972 127.458C393.224 127.725 391.654 128.384 391.75 129.471C392.008 132.359 392.225 135.258 392.3 138.162C392.376 141.065 392.371 143.843 392.351 146.682C392.305 152.106 392.164 157.526 392.073 162.946C391.886 173.756 391.629 184.585 391.568 195.374C391.568 197.941 391.503 200.502 391.669 203.064C391.851 205.771 392.083 208.474 392.24 211.186C392.396 213.899 392.422 216.722 392.326 219.495C392.23 222.121 392.144 224.753 392.114 227.39C392.114 228.794 392.114 230.193 392.114 231.597C392.114 233.001 392.255 234.315 392.336 235.663C392.492 238.386 392.472 241.093 392.406 243.821C392.339 246.421 392.3 249.023 392.29 251.626C392.29 254.233 392.593 256.819 392.795 259.411C393.123 263.719 393.224 268.047 393.502 272.359C393.628 274.337 393.744 276.315 393.926 278.287C394.007 279.213 394.128 280.139 394.234 281.06C394.29 281.563 394.33 282.097 394.375 282.61C394.487 283.489 394.754 284.341 395.163 285.126C395.728 285.777 396.475 286.245 397.309 286.47C399.612 287.177 402.074 287.177 404.377 286.47C405.488 286.083 406.614 285.524 406.826 284.261C407.058 282.882 406.75 281.528 406.563 280.159C406.402 278.942 406.276 277.719 406.149 276.501C405.877 273.894 405.675 271.257 405.589 268.64C405.498 265.948 405.453 263.246 405.271 260.553C405.089 257.766 404.806 254.983 404.806 252.185C404.806 246.83 405.24 241.481 405.094 236.126C405.054 234.803 404.998 233.484 404.963 232.166C404.927 230.848 404.993 229.65 405.018 228.397C405.069 225.704 405.119 223.012 405.22 220.32C405.271 218.835 405.316 217.351 405.347 215.866C405.347 214.523 405.271 213.169 405.22 211.84C405.124 209.264 404.882 206.697 404.715 204.121C404.322 198.646 404.433 193.14 404.367 187.655C404.232 176.963 404.037 166.269 403.781 155.574C403.59 146.868 403.423 138.152 402.645 129.481C402.61 129.167 402.494 128.867 402.311 128.609C402.127 128.351 401.881 128.144 401.595 128.006C400.384 127.191 398.632 127 397.213 127H397.117C396.061 127.008 395.012 127.178 394.007 127.503L393.972 127.458Z" fill="white"/>
<path d="M78.8518 100.845C77.5708 101.303 74.8242 102.451 75.0089 104.325C75.3544 107.895 75.6761 111.512 76.0575 115.105C76.1185 115.652 76.3179 116.174 76.6369 116.622C76.9558 117.071 77.3838 117.431 77.8806 117.669C79.9957 119.103 83.0462 119.454 85.5128 119.454C87.4066 119.474 89.2914 119.191 91.0954 118.615L93.145 117.675C93.6417 117.437 94.0697 117.077 94.3887 116.628C94.7076 116.18 94.907 115.658 94.9681 115.111C94.3723 111.541 94.1221 107.924 93.7765 104.331C93.7182 103.79 93.5237 103.273 93.2112 102.828C92.8986 102.383 92.4782 102.024 91.9891 101.785C89.8919 100.363 86.8652 100 84.4225 100H84.2616C82.4419 100 80.6333 100.281 78.8994 100.833L78.8518 100.845Z" fill="#FFD914"/>
</g>
<g filter="url(#filter1_d_42_1215)">
<path d="M23.769 251C23.401 251 23.081 250.864 22.809 250.592C22.537 250.32 22.401 250 22.401 249.632V234.464C22.401 234.192 22.497 233.96 22.689 233.768C22.881 233.576 23.113 233.48 23.385 233.48C23.657 233.48 23.889 233.576 24.081 233.768C24.273 233.96 24.369 234.192 24.369 234.464V249.056C24.369 249.2 24.433 249.272 24.561 249.272H29.217C29.457 249.272 29.657 249.36 29.817 249.536C29.993 249.696 30.081 249.896 30.081 250.136C30.081 250.376 29.993 250.584 29.817 250.76C29.657 250.92 29.457 251 29.217 251H23.769ZM38.769 251C38.401 251 38.081 250.864 37.809 250.592C37.537 250.32 37.401 250 37.401 249.632V234.848C37.401 234.48 37.537 234.16 37.809 233.888C38.081 233.616 38.401 233.48 38.769 233.48H44.697C44.937 233.48 45.137 233.568 45.297 233.744C45.473 233.904 45.561 234.104 45.561 234.344C45.561 234.584 45.473 234.792 45.297 234.968C45.137 235.128 44.937 235.208 44.697 235.208H39.561C39.433 235.208 39.369 235.272 39.369 235.4V240.464C39.369 240.608 39.433 240.68 39.561 240.68H44.481C44.705 240.68 44.897 240.768 45.057 240.944C45.233 241.104 45.321 241.296 45.321 241.52C45.321 241.744 45.233 241.944 45.057 242.12C44.897 242.28 44.705 242.36 44.481 242.36H39.561C39.433 242.36 39.369 242.424 39.369 242.552V249.056C39.369 249.2 39.433 249.272 39.561 249.272H44.697C44.937 249.272 45.137 249.36 45.297 249.536C45.473 249.696 45.561 249.896 45.561 250.136C45.561 250.376 45.473 250.584 45.297 250.76C45.137 250.92 44.937 251 44.697 251H38.769ZM53.169 235.256C52.913 235.256 52.697 235.176 52.521 235.016C52.361 234.84 52.281 234.624 52.281 234.368C52.281 234.112 52.361 233.904 52.521 233.744C52.697 233.568 52.913 233.48 53.169 233.48H60.753C61.009 233.48 61.217 233.568 61.377 233.744C61.553 233.904 61.641 234.112 61.641 234.368C61.641 234.624 61.553 234.84 61.377 235.016C61.217 235.176 61.009 235.256 60.753 235.256H58.161C58.017 235.256 57.945 235.328 57.945 235.472V250.016C57.945 250.288 57.849 250.52 57.657 250.712C57.465 250.904 57.233 251 56.961 251C56.689 251 56.457 250.904 56.265 250.712C56.073 250.52 55.977 250.288 55.977 250.016V235.472C55.977 235.328 55.905 235.256 55.761 235.256H53.169ZM71.121 239C70.897 239 70.713 238.92 70.569 238.76C70.441 238.584 70.401 238.392 70.449 238.184L71.433 233.6C71.513 233.216 71.705 232.904 72.009 232.664C72.329 232.408 72.689 232.28 73.089 232.28H73.233C73.553 232.28 73.801 232.416 73.977 232.688C74.169 232.96 74.209 233.248 74.097 233.552L72.273 238.208C72.177 238.448 72.017 238.64 71.793 238.784C71.585 238.928 71.361 239 71.121 239ZM87.801 242.96C86.297 242.288 85.217 241.528 84.561 240.68C83.921 239.816 83.601 238.776 83.601 237.56C83.601 236.28 84.009 235.24 84.825 234.44C85.641 233.64 86.713 233.24 88.041 233.24C89.273 233.24 90.265 233.4 91.017 233.72C91.673 233.992 92.001 234.512 92.001 235.28C92.001 235.504 91.897 235.672 91.689 235.784C91.497 235.88 91.305 235.872 91.113 235.76C90.217 235.232 89.233 234.968 88.161 234.968C87.409 234.968 86.785 235.216 86.289 235.712C85.809 236.192 85.569 236.808 85.569 237.56C85.569 238.36 85.745 239.024 86.097 239.552C86.449 240.08 87.017 240.52 87.801 240.872C89.577 241.656 90.801 242.48 91.473 243.344C92.145 244.192 92.481 245.304 92.481 246.68C92.481 248.184 92.065 249.32 91.233 250.088C90.417 250.856 89.233 251.24 87.681 251.24C86.561 251.24 85.553 251 84.657 250.52C84.033 250.184 83.721 249.608 83.721 248.792C83.721 248.584 83.825 248.432 84.033 248.336C84.241 248.24 84.433 248.256 84.609 248.384C85.649 249.136 86.713 249.512 87.801 249.512C89.609 249.512 90.513 248.568 90.513 246.68C90.513 245.8 90.305 245.072 89.889 244.496C89.473 243.92 88.777 243.408 87.801 242.96ZM119.601 251.24C117.713 251.24 116.281 250.528 115.305 249.104C114.329 247.68 113.841 245.392 113.841 242.24C113.841 239.104 114.345 236.824 115.353 235.4C116.377 233.96 117.913 233.24 119.961 233.24C120.521 233.24 121.265 233.352 122.193 233.576C122.449 233.64 122.657 233.792 122.817 234.032C122.993 234.256 123.081 234.504 123.081 234.776C123.081 235 122.985 235.168 122.793 235.28C122.617 235.392 122.425 235.416 122.217 235.352C121.369 235.096 120.617 234.968 119.961 234.968C118.569 234.968 117.513 235.544 116.793 236.696C116.073 237.848 115.713 239.696 115.713 242.24C115.713 247.088 117.049 249.512 119.721 249.512C120.313 249.512 120.929 249.36 121.569 249.056C121.697 249.008 121.761 248.904 121.761 248.744V242.576C121.761 242.432 121.689 242.36 121.545 242.36H118.881C118.657 242.36 118.457 242.28 118.281 242.12C118.121 241.944 118.041 241.744 118.041 241.52C118.041 241.296 118.121 241.104 118.281 240.944C118.457 240.768 118.657 240.68 118.881 240.68H122.313C122.681 240.68 123.001 240.816 123.273 241.088C123.545 241.36 123.681 241.68 123.681 242.048V248.912C123.681 249.344 123.569 249.736 123.345 250.088C123.137 250.424 122.841 250.656 122.457 250.784C121.561 251.088 120.609 251.24 119.601 251.24ZM136.065 235.592C135.633 235.176 135.065 234.968 134.361 234.968C133.657 234.968 133.089 235.176 132.657 235.592C132.225 235.992 131.881 236.736 131.625 237.824C131.369 238.912 131.241 240.384 131.241 242.24C131.241 244.096 131.369 245.568 131.625 246.656C131.881 247.744 132.225 248.496 132.657 248.912C133.089 249.312 133.657 249.512 134.361 249.512C135.065 249.512 135.633 249.312 136.065 248.912C136.497 248.496 136.841 247.744 137.097 246.656C137.353 245.568 137.481 244.096 137.481 242.24C137.481 240.384 137.353 238.912 137.097 237.824C136.841 236.736 136.497 235.992 136.065 235.592ZM138.153 249.224C137.337 250.568 136.073 251.24 134.361 251.24C132.649 251.24 131.377 250.568 130.545 249.224C129.729 247.864 129.321 245.536 129.321 242.24C129.321 238.944 129.729 236.624 130.545 235.28C131.377 233.92 132.649 233.24 134.361 233.24C136.073 233.24 137.337 233.92 138.153 235.28C138.985 236.624 139.401 238.944 139.401 242.24C139.401 245.536 138.985 247.864 138.153 249.224ZM27.081 287.24C25.129 287.24 23.681 286.552 22.737 285.176C21.793 283.8 21.321 281.488 21.321 278.24C21.321 275.088 21.801 272.8 22.761 271.376C23.737 269.952 25.177 269.24 27.081 269.24C27.833 269.24 28.561 269.36 29.265 269.6C29.809 269.792 30.081 270.216 30.081 270.872C30.081 271.08 29.993 271.24 29.817 271.352C29.657 271.448 29.481 271.456 29.289 271.376C28.601 271.104 27.905 270.968 27.201 270.968C24.561 270.968 23.241 273.392 23.241 278.24C23.241 280.864 23.577 282.736 24.249 283.856C24.921 284.96 25.905 285.512 27.201 285.512C27.921 285.512 28.633 285.36 29.337 285.056C29.529 284.976 29.721 284.992 29.913 285.104C30.105 285.2 30.201 285.352 30.201 285.56C30.201 286.232 29.905 286.672 29.313 286.88C28.593 287.12 27.849 287.24 27.081 287.24ZM40.401 279.848L36.585 270.464C36.489 270.224 36.513 270 36.657 269.792C36.801 269.584 37.001 269.48 37.257 269.48C37.577 269.48 37.865 269.576 38.121 269.768C38.393 269.944 38.585 270.184 38.697 270.488L41.481 277.976C41.481 277.992 41.489 278 41.505 278C41.521 278 41.529 277.992 41.529 277.976L44.337 270.44C44.449 270.152 44.625 269.92 44.865 269.744C45.121 269.568 45.401 269.48 45.705 269.48C45.945 269.48 46.137 269.584 46.281 269.792C46.425 270 46.449 270.216 46.353 270.44L42.513 279.848C42.465 279.976 42.441 280.112 42.441 280.256V286.016C42.441 286.288 42.345 286.52 42.153 286.712C41.961 286.904 41.729 287 41.457 287C41.185 287 40.953 286.904 40.761 286.712C40.569 286.52 40.473 286.288 40.473 286.016V280.256C40.473 280.112 40.449 279.976 40.401 279.848ZM58.041 287.24C56.089 287.24 54.641 286.552 53.697 285.176C52.753 283.8 52.281 281.488 52.281 278.24C52.281 275.088 52.761 272.8 53.721 271.376C54.697 269.952 56.137 269.24 58.041 269.24C58.793 269.24 59.521 269.36 60.225 269.6C60.769 269.792 61.041 270.216 61.041 270.872C61.041 271.08 60.953 271.24 60.777 271.352C60.617 271.448 60.441 271.456 60.249 271.376C59.561 271.104 58.865 270.968 58.161 270.968C55.521 270.968 54.201 273.392 54.201 278.24C54.201 280.864 54.537 282.736 55.209 283.856C55.881 284.96 56.865 285.512 58.161 285.512C58.881 285.512 59.593 285.36 60.297 285.056C60.489 284.976 60.681 284.992 60.873 285.104C61.065 285.2 61.161 285.352 61.161 285.56C61.161 286.232 60.865 286.672 60.273 286.88C59.553 287.12 58.809 287.24 58.041 287.24ZM70.209 287C69.841 287 69.521 286.864 69.249 286.592C68.977 286.32 68.841 286 68.841 285.632V270.464C68.841 270.192 68.937 269.96 69.129 269.768C69.321 269.576 69.553 269.48 69.825 269.48C70.097 269.48 70.329 269.576 70.521 269.768C70.713 269.96 70.809 270.192 70.809 270.464V285.056C70.809 285.2 70.873 285.272 71.001 285.272H75.657C75.897 285.272 76.097 285.36 76.257 285.536C76.433 285.696 76.521 285.896 76.521 286.136C76.521 286.376 76.433 286.584 76.257 286.76C76.097 286.92 75.897 287 75.657 287H70.209ZM86.697 285.32C86.841 285.32 86.913 285.248 86.913 285.104V271.352C86.913 271.224 86.841 271.16 86.697 271.16H84.921C84.697 271.16 84.497 271.08 84.321 270.92C84.161 270.744 84.081 270.544 84.081 270.32C84.081 270.096 84.161 269.904 84.321 269.744C84.497 269.568 84.697 269.48 84.921 269.48H90.921C91.145 269.48 91.337 269.568 91.497 269.744C91.673 269.904 91.761 270.096 91.761 270.32C91.761 270.544 91.673 270.744 91.497 270.92C91.337 271.08 91.145 271.16 90.921 271.16H89.145C89.001 271.16 88.929 271.224 88.929 271.352V285.104C88.929 285.248 89.001 285.32 89.145 285.32H90.921C91.145 285.32 91.337 285.408 91.497 285.584C91.673 285.744 91.761 285.936 91.761 286.16C91.761 286.384 91.673 286.584 91.497 286.76C91.337 286.92 91.145 287 90.921 287H84.921C84.697 287 84.497 286.92 84.321 286.76C84.161 286.584 84.081 286.384 84.081 286.16C84.081 285.936 84.161 285.744 84.321 285.584C84.497 285.408 84.697 285.32 84.921 285.32H86.697ZM100.665 286.712C100.473 286.904 100.241 287 99.969 287C99.697 287 99.457 286.904 99.249 286.712C99.057 286.504 98.961 286.264 98.961 285.992V270.488C98.961 270.216 99.057 269.984 99.249 269.792C99.457 269.584 99.697 269.48 99.969 269.48C100.641 269.48 101.097 269.792 101.337 270.416L105.873 282.656C105.873 282.672 105.881 282.68 105.897 282.68C105.913 282.68 105.921 282.672 105.921 282.656V270.44C105.921 270.184 106.009 269.96 106.185 269.768C106.377 269.576 106.609 269.48 106.881 269.48C107.153 269.48 107.377 269.576 107.553 269.768C107.745 269.96 107.841 270.184 107.841 270.44V286.04C107.841 286.296 107.745 286.52 107.553 286.712C107.377 286.904 107.153 287 106.881 287C106.593 287 106.329 286.92 106.089 286.76C105.849 286.584 105.681 286.36 105.585 286.088L101.025 273.824C101.025 273.808 101.017 273.8 101.001 273.8C100.985 273.8 100.977 273.808 100.977 273.824V285.992C100.977 286.264 100.873 286.504 100.665 286.712ZM119.601 287.24C117.713 287.24 116.281 286.528 115.305 285.104C114.329 283.68 113.841 281.392 113.841 278.24C113.841 275.104 114.345 272.824 115.353 271.4C116.377 269.96 117.913 269.24 119.961 269.24C120.521 269.24 121.265 269.352 122.193 269.576C122.449 269.64 122.657 269.792 122.817 270.032C122.993 270.256 123.081 270.504 123.081 270.776C123.081 271 122.985 271.168 122.793 271.28C122.617 271.392 122.425 271.416 122.217 271.352C121.369 271.096 120.617 270.968 119.961 270.968C118.569 270.968 117.513 271.544 116.793 272.696C116.073 273.848 115.713 275.696 115.713 278.24C115.713 283.088 117.049 285.512 119.721 285.512C120.313 285.512 120.929 285.36 121.569 285.056C121.697 285.008 121.761 284.904 121.761 284.744V278.576C121.761 278.432 121.689 278.36 121.545 278.36H118.881C118.657 278.36 118.457 278.28 118.281 278.12C118.121 277.944 118.041 277.744 118.041 277.52C118.041 277.296 118.121 277.104 118.281 276.944C118.457 276.768 118.657 276.68 118.881 276.68H122.313C122.681 276.68 123.001 276.816 123.273 277.088C123.545 277.36 123.681 277.68 123.681 278.048V284.912C123.681 285.344 123.569 285.736 123.345 286.088C123.137 286.424 122.841 286.656 122.457 286.784C121.561 287.088 120.609 287.24 119.601 287.24ZM135.057 281.552C134.865 281.744 134.633 281.84 134.361 281.84C134.089 281.84 133.857 281.744 133.665 281.552C133.473 281.36 133.377 281.136 133.377 280.88L133.185 270.68C133.169 270.36 133.281 270.08 133.521 269.84C133.761 269.6 134.041 269.48 134.361 269.48C134.681 269.48 134.961 269.6 135.201 269.84C135.441 270.08 135.553 270.36 135.537 270.68L135.345 280.88C135.345 281.136 135.249 281.36 135.057 281.552ZM135.273 286.616C135.017 286.872 134.713 287 134.361 287C134.009 287 133.697 286.872 133.425 286.616C133.169 286.36 133.041 286.048 133.041 285.68V285.2C133.041 284.832 133.169 284.52 133.425 284.264C133.697 284.008 134.009 283.88 134.361 283.88C134.713 283.88 135.017 284.008 135.273 284.264C135.545 284.52 135.681 284.832 135.681 285.2V285.68C135.681 286.048 135.545 286.36 135.273 286.616Z" fill="white"/>
</g>
<defs>
<filter id="filter0_d_42_1215" x="0" y="0" width="472.242" height="299" filterUnits="userSpaceOnUse" color-interpolation-filters="sRGB">
<feFlood flood-opacity="0" result="BackgroundImageFix"/>
<feColorMatrix in="SourceAlpha" type="matrix" values="0 0 0 0 0 0 0 0 0 0 0 0 0 0 0 0 0 0 127 0" result="hardAlpha"/>
<feOffset/>
<feGaussianBlur stdDeviation="6"/>
<feComposite in2="hardAlpha" operator="out"/>
<feColorMatrix type="matrix" values="0 0 0 0 0 0 0 0 0 0 0 0 0 0 0 0 0 0 0.57 0"/>
<feBlend mode="normal" in2="BackgroundImageFix" result="effect1_dropShadow_42_1215"/>
<feBlend mode="normal" in="SourceGraphic" in2="effect1_dropShadow_42_1215" result="shape"/>
</filter>
<filter id="filter1_d_42_1215" x="17.3209" y="228.281" width="126.08" height="62.957" filterUnits="userSpaceOnUse" color-interpolation-filters="sRGB">
<feFlood flood-opacity="0" result="BackgroundImageFix"/>
<feColorMatrix in="SourceAlpha" type="matrix" values="0 0 0 0 0 0 0 0 0 0 0 0 0 0 0 0 0 0 127 0" result="hardAlpha"/>
<feOffset/>
<feGaussianBlur stdDeviation="2"/>
<feComposite in2="hardAlpha" operator="out"/>
<feColorMatrix type="matrix" values="0 0 0 0 0 0 0 0 0 0 0 0 0 0 0 0 0 0 0.25 0"/>
<feBlend mode="normal" in2="BackgroundImageFix" result="effect1_dropShadow_42_1215"/>
<feBlend mode="normal" in="SourceGraphic" in2="effect1_dropShadow_42_1215" result="shape"/>
</filter>
</defs>
</svg>
