<svg width="58" height="49" viewBox="0 0 58 49" fill="none" xmlns="http://www.w3.org/2000/svg">
<path fill-rule="evenodd" clip-rule="evenodd" d="M1.24897 7.60408C1.24897 10.054 2.58116 12.2333 4.64991 13.624C1.70914 17.2035 0 21.4791 0 26.0717C0 38.6706 12.8623 48.884 28.7288 48.884C44.5952 48.884 57.4575 38.6706 57.4575 26.0717C57.4575 22.0086 56.1198 18.1936 53.7749 14.8892C56.0036 13.5111 57.4576 11.247 57.4576 8.68761C57.4576 4.48799 53.543 1.08353 48.714 1.08353C45.2485 1.08353 42.2539 2.83695 40.8391 5.37935C37.159 4.01901 33.0556 3.25947 28.7288 3.25947C24.9923 3.25947 21.4224 3.82589 18.1478 4.8565C16.8812 2.01482 13.7074 0 9.99251 0C5.16359 0 1.24897 3.40446 1.24897 7.60408Z" fill="#1DFFFF"/>
</svg>
